# Blender v3.0.1 OBJ File: ''
# www.blender.org
mtllib Line3.mtl
o Circle_Circle.001
v -0.000000 0.000000 -0.993595
v -0.193841 0.000000 -0.974504
v -0.380232 0.000000 -0.917962
v -0.552012 0.000000 -0.826144
v -0.702578 0.000000 -0.702578
v -0.826144 0.000000 -0.552012
v -0.917962 0.000000 -0.380232
v -0.974504 0.000000 -0.193841
v -0.993595 0.000000 0.000000
v -0.974504 0.000000 0.193841
v -0.917962 0.000000 0.380232
v -0.826144 0.000000 0.552012
v -0.702578 0.000000 0.702578
v -0.552012 0.000000 0.826144
v -0.380232 0.000000 0.917962
v -0.193841 0.000000 0.974504
v 0.000000 0.000000 0.993595
v 0.193841 0.000000 0.974504
v 0.380232 0.000000 0.917962
v 0.552012 0.000000 0.826144
v 0.702578 0.000000 0.702578
v 0.826144 0.000000 0.552012
v 0.917962 0.000000 0.380233
v 0.974504 0.000000 0.193841
v 0.993595 0.000000 -0.000000
v 0.974504 0.000000 -0.193841
v 0.917962 0.000000 -0.380233
v 0.826144 0.000000 -0.552012
v 0.702578 0.000000 -0.702578
v 0.552012 0.000000 -0.826144
v 0.380232 0.000000 -0.917962
v 0.193841 0.000000 -0.974504
v -0.000000 0.000000 -0.960442
v -0.187373 0.000000 -0.941987
v -0.367545 0.000000 -0.887333
v -0.533593 0.000000 -0.798578
v -0.679135 0.000000 -0.679135
v -0.798578 0.000000 -0.533593
v -0.887333 0.000000 -0.367545
v -0.941987 0.000000 -0.187373
v -0.960442 0.000000 0.000000
v -0.941987 0.000000 0.187373
v -0.887333 0.000000 0.367545
v -0.798578 0.000000 0.533593
v -0.679135 0.000000 0.679135
v -0.533593 0.000000 0.798578
v -0.367545 0.000000 0.887333
v -0.187373 0.000000 0.941987
v 0.000000 0.000000 0.960442
v 0.187373 0.000000 0.941987
v 0.367545 0.000000 0.887333
v 0.533593 0.000000 0.798578
v 0.679135 0.000000 0.679135
v 0.798578 0.000000 0.533593
v 0.887333 0.000000 0.367545
v 0.941987 0.000000 0.187373
v 0.960442 0.000000 -0.000000
v 0.941987 0.000000 -0.187373
v 0.887333 0.000000 -0.367545
v 0.798578 0.000000 -0.533593
v 0.679135 0.000000 -0.679135
v 0.533593 0.000000 -0.798578
v 0.367545 0.000000 -0.887333
v 0.187373 0.000000 -0.941987
v -0.097389 0.000000 -0.988807
v -0.288424 0.000000 -0.950808
v -0.468376 0.000000 -0.876269
v -0.630328 0.000000 -0.768056
v -0.768056 0.000000 -0.630328
v -0.876269 0.000000 -0.468376
v -0.950808 0.000000 -0.288424
v -0.988807 0.000000 -0.097389
v -0.988807 0.000000 0.097389
v -0.950808 0.000000 0.288424
v -0.876269 0.000000 0.468376
v -0.768056 0.000000 0.630328
v -0.630328 0.000000 0.768056
v -0.468376 0.000000 0.876269
v -0.288424 0.000000 0.950808
v -0.097389 0.000000 0.988807
v 0.097389 0.000000 0.988807
v 0.288424 0.000000 0.950808
v 0.468376 0.000000 0.876269
v 0.630328 0.000000 0.768056
v 0.768056 0.000000 0.630328
v 0.876269 0.000000 0.468376
v 0.950808 0.000000 0.288424
v 0.988807 0.000000 0.097389
v 0.988807 0.000000 -0.097389
v 0.950808 0.000000 -0.288424
v 0.876269 0.000000 -0.468376
v 0.768057 0.000000 -0.630327
v 0.630328 0.000000 -0.768056
v 0.468376 0.000000 -0.876269
v 0.288424 0.000000 -0.950808
v 0.097389 0.000000 -0.988807
v -0.094139 0.000000 -0.955813
v -0.278800 0.000000 -0.919082
v -0.452747 0.000000 -0.847031
v -0.609295 0.000000 -0.742429
v -0.742429 0.000000 -0.609295
v -0.847031 0.000000 -0.452747
v -0.919082 0.000000 -0.278800
v -0.955813 0.000000 -0.094139
v -0.955813 0.000000 0.094139
v -0.919082 0.000000 0.278800
v -0.847031 0.000000 0.452747
v -0.742429 0.000000 0.609295
v -0.609295 0.000000 0.742429
v -0.452747 0.000000 0.847031
v -0.278800 0.000000 0.919082
v -0.094139 0.000000 0.955813
v 0.094139 0.000000 0.955813
v 0.278800 0.000000 0.919082
v 0.452747 0.000000 0.847031
v 0.609295 0.000000 0.742429
v 0.742429 0.000000 0.609296
v 0.847031 0.000000 0.452748
v 0.919082 0.000000 0.278801
v 0.955813 0.000000 0.094139
v 0.955813 0.000000 -0.094139
v 0.919082 0.000000 -0.278801
v 0.847031 0.000000 -0.452747
v 0.742429 0.000000 -0.609295
v 0.609296 0.000000 -0.742429
v 0.452747 0.000000 -0.847031
v 0.278800 0.000000 -0.919082
v 0.094139 0.000000 -0.955813
v -0.958245 0.000000 -0.190607
v -0.977018 0.000000 0.000000
v 0.812361 0.000000 0.542803
v 0.902647 0.000000 0.373889
v -0.958245 0.000000 0.190607
v 0.958245 0.000000 0.190607
v -0.902647 0.000000 0.373889
v 0.977018 0.000000 -0.000000
v -0.812361 0.000000 0.542802
v 0.958245 0.000000 -0.190607
v -0.690856 0.000000 0.690856
v 0.902647 0.000000 -0.373889
v -0.542802 0.000000 0.812361
v 0.812361 0.000000 -0.542802
v -0.373889 0.000000 0.902647
v -0.000000 0.000000 -0.977018
v -0.190607 0.000000 -0.958245
v 0.690856 0.000000 -0.690856
v -0.190607 0.000000 0.958245
v -0.373889 0.000000 -0.902647
v 0.542802 0.000000 -0.812361
v 0.000000 0.000000 0.977018
v -0.542802 0.000000 -0.812361
v 0.373889 0.000000 -0.902647
v 0.190607 0.000000 0.958245
v -0.690856 0.000000 -0.690856
v 0.190607 0.000000 -0.958245
v 0.373889 0.000000 0.902647
v -0.812361 0.000000 -0.542802
v 0.542802 0.000000 0.812361
v -0.902647 0.000000 -0.373889
v 0.690856 0.000000 0.690856
v -0.972310 0.000000 -0.095764
v 0.861650 0.000000 0.460562
v -0.972310 0.000000 0.095764
v 0.934945 0.000000 0.283612
v -0.934945 0.000000 0.283612
v 0.972310 0.000000 0.095764
v -0.861650 0.000000 0.460561
v 0.972310 0.000000 -0.095764
v -0.755243 0.000000 0.619812
v 0.934945 0.000000 -0.283613
v -0.619811 0.000000 0.755243
v 0.861650 0.000000 -0.460562
v -0.460562 0.000000 0.861650
v -0.095764 0.000000 -0.972310
v 0.755243 0.000000 -0.619811
v -0.283612 0.000000 0.934945
v -0.283612 0.000000 -0.934945
v 0.619812 0.000000 -0.755242
v -0.095764 0.000000 0.972310
v -0.460562 0.000000 -0.861650
v 0.460562 0.000000 -0.861650
v 0.095764 0.000000 0.972310
v -0.619812 0.000000 -0.755243
v 0.283612 0.000000 -0.934945
v 0.283612 0.000000 0.934945
v -0.755243 0.000000 -0.619811
v 0.095764 0.000000 -0.972310
v 0.460562 0.000000 0.861650
v -0.861650 0.000000 -0.460562
v 0.619812 0.000000 0.755243
v -0.934945 0.000000 -0.283612
v 0.755242 0.000000 0.619812
vt 0.000000 0.000000
vt 0.000000 0.000000
vt 0.000000 0.000000
vt 0.000000 0.000000
vt 0.000000 0.000000
vt 0.000000 0.000000
vt 0.000000 0.000000
vt 0.000000 0.000000
vt 0.000000 0.000000
vt 0.000000 0.000000
vt 0.000000 0.000000
vt 0.000000 0.000000
vt 0.000000 0.000000
vt 0.000000 0.000000
vt 0.000000 0.000000
vt 0.000000 0.000000
vt 0.000000 0.000000
vt 0.000000 0.000000
vt 0.000000 0.000000
vt 0.000000 0.000000
vt 0.000000 0.000000
vt 0.000000 0.000000
vt 0.000000 0.000000
vt 0.000000 0.000000
vt 0.000000 0.000000
vt 0.000000 0.000000
vt 0.000000 0.000000
vt 0.000000 0.000000
vt 0.000000 0.000000
vt 0.000000 0.000000
vt 0.000000 0.000000
vt 0.000000 0.000000
vt 0.000000 0.000000
vt 0.000000 0.000000
vt 0.000000 0.000000
vt 0.000000 0.000000
vt 0.000000 0.000000
vt 0.000000 0.000000
vt 0.000000 0.000000
vt 0.000000 0.000000
vt 0.000000 0.000000
vt 0.000000 0.000000
vt 0.000000 0.000000
vt 0.000000 0.000000
vt 0.000000 0.000000
vt 0.000000 0.000000
vt 0.000000 0.000000
vt 0.000000 0.000000
vt 0.000000 0.000000
vt 0.000000 0.000000
vt 0.000000 0.000000
vt 0.000000 0.000000
vt 0.000000 0.000000
vt 0.000000 0.000000
vt 0.000000 0.000000
vt 0.000000 0.000000
vt 0.000000 0.000000
vt 0.000000 0.000000
vt 0.000000 0.000000
vt 0.000000 0.000000
vt 0.000000 0.000000
vt 0.000000 0.000000
vt 0.000000 0.000000
vt 0.000000 0.000000
vt 0.000000 0.000000
vt 0.000000 0.000000
vt 0.000000 0.000000
vt 0.000000 0.000000
vt 0.000000 0.000000
vt 0.000000 0.000000
vt 0.000000 0.000000
vt 0.000000 0.000000
vt 0.000000 0.000000
vt 0.000000 0.000000
vt 0.000000 0.000000
vt 0.000000 0.000000
vt 0.000000 0.000000
vt 0.000000 0.000000
vt 0.000000 0.000000
vt 0.000000 0.000000
vt 0.000000 0.000000
vt 0.000000 0.000000
vt 0.000000 0.000000
vt 0.000000 0.000000
vt 0.000000 0.000000
vt 0.000000 0.000000
vt 0.000000 0.000000
vt 0.000000 0.000000
vt 0.000000 0.000000
vt 0.000000 0.000000
vt 0.000000 0.000000
vt 0.000000 0.000000
vt 0.000000 0.000000
vt 0.000000 0.000000
vt 0.000000 0.000000
vt 0.000000 0.000000
vt 0.000000 0.000000
vt 0.000000 0.000000
vt 0.000000 0.000000
vt 0.000000 0.000000
vt 0.000000 0.000000
vt 0.000000 0.000000
vt 0.000000 0.000000
vt 0.000000 0.000000
vt 0.000000 0.000000
vt 0.000000 0.000000
vt 0.000000 0.000000
vt 0.000000 0.000000
vt 0.000000 0.000000
vt 0.000000 0.000000
vt 0.000000 0.000000
vt 0.000000 0.000000
vt 0.000000 0.000000
vt 0.000000 0.000000
vt 0.000000 0.000000
vt 0.000000 0.000000
vt 0.000000 0.000000
vt 0.000000 0.000000
vt 0.000000 0.000000
vt 0.000000 0.000000
vt 0.000000 0.000000
vt 0.000000 0.000000
vt 0.000000 0.000000
vt 0.000000 0.000000
vt 0.000000 0.000000
vt 0.000000 0.000000
vt 0.000000 0.000000
vt 0.000000 0.000000
vt 0.000000 0.000000
vt 0.000000 0.000000
vt 0.000000 0.000000
vt 0.000000 0.000000
vt 0.000000 0.000000
vt 0.000000 0.000000
vt 0.000000 0.000000
vt 0.000000 0.000000
vt 0.000000 0.000000
vt 0.000000 0.000000
vt 0.000000 0.000000
vt 0.000000 0.000000
vt 0.000000 0.000000
vt 0.000000 0.000000
vt 0.000000 0.000000
vt 0.000000 0.000000
vt 0.000000 0.000000
vt 0.000000 0.000000
vt 0.000000 0.000000
vt 0.000000 0.000000
vt 0.000000 0.000000
vt 0.000000 0.000000
vt 0.000000 0.000000
vt 0.000000 0.000000
vt 0.000000 0.000000
vt 0.000000 0.000000
vt 0.000000 0.000000
vt 0.000000 0.000000
vt 0.000000 0.000000
vt 0.000000 0.000000
vt 0.000000 0.000000
vt 0.000000 0.000000
vt 0.000000 0.000000
vt 0.000000 0.000000
vt 0.000000 0.000000
vt 0.000000 0.000000
vt 0.000000 0.000000
vt 0.000000 0.000000
vt 0.000000 0.000000
vt 0.000000 0.000000
vt 0.000000 0.000000
vt 0.000000 0.000000
vt 0.000000 0.000000
vt 0.000000 0.000000
vt 0.000000 0.000000
vt 0.000000 0.000000
vt 0.000000 0.000000
vt 0.000000 0.000000
vt 0.000000 0.000000
vt 0.000000 0.000000
vt 0.000000 0.000000
vt 0.000000 0.000000
vt 0.000000 0.000000
vt 0.000000 0.000000
vt 0.000000 0.000000
vt 0.000000 0.000000
vt 0.000000 0.000000
vt 0.000000 0.000000
vt 0.000000 0.000000
vt 0.000000 0.000000
vt 0.000000 0.000000
vt 0.000000 0.000000
vt 0.000000 0.000000
vt 0.000000 0.000000
vn 0.0000 -1.0000 0.0000
usemtl Material.002
s off
f 9/1/1 72/2/1 161/3/1 130/4/1
f 72/2/1 8/5/1 129/6/1 161/3/1
f 161/3/1 129/6/1 40/7/1 104/8/1
f 130/4/1 161/3/1 104/8/1 41/9/1
f 23/10/1 86/11/1 162/12/1 132/13/1
f 86/11/1 22/14/1 131/15/1 162/12/1
f 162/12/1 131/15/1 54/16/1 118/17/1
f 132/13/1 162/12/1 118/17/1 55/18/1
f 10/19/1 73/20/1 163/21/1 133/22/1
f 73/20/1 9/1/1 130/4/1 163/21/1
f 163/21/1 130/4/1 41/9/1 105/23/1
f 133/22/1 163/21/1 105/23/1 42/24/1
f 24/25/1 87/26/1 164/27/1 134/28/1
f 87/26/1 23/10/1 132/13/1 164/27/1
f 164/27/1 132/13/1 55/18/1 119/29/1
f 134/28/1 164/27/1 119/29/1 56/30/1
f 11/31/1 74/32/1 165/33/1 135/34/1
f 74/32/1 10/19/1 133/22/1 165/33/1
f 165/33/1 133/22/1 42/24/1 106/35/1
f 135/34/1 165/33/1 106/35/1 43/36/1
f 25/37/1 88/38/1 166/39/1 136/40/1
f 88/38/1 24/25/1 134/28/1 166/39/1
f 166/39/1 134/28/1 56/30/1 120/41/1
f 136/40/1 166/39/1 120/41/1 57/42/1
f 12/43/1 75/44/1 167/45/1 137/46/1
f 75/44/1 11/31/1 135/34/1 167/45/1
f 167/45/1 135/34/1 43/36/1 107/47/1
f 137/46/1 167/45/1 107/47/1 44/48/1
f 26/49/1 89/50/1 168/51/1 138/52/1
f 89/50/1 25/37/1 136/40/1 168/51/1
f 168/51/1 136/40/1 57/42/1 121/53/1
f 138/52/1 168/51/1 121/53/1 58/54/1
f 13/55/1 76/56/1 169/57/1 139/58/1
f 76/56/1 12/43/1 137/46/1 169/57/1
f 169/57/1 137/46/1 44/48/1 108/59/1
f 139/58/1 169/57/1 108/59/1 45/60/1
f 27/61/1 90/62/1 170/63/1 140/64/1
f 90/62/1 26/49/1 138/52/1 170/63/1
f 170/63/1 138/52/1 58/54/1 122/65/1
f 140/64/1 170/63/1 122/65/1 59/66/1
f 14/67/1 77/68/1 171/69/1 141/70/1
f 77/68/1 13/55/1 139/58/1 171/69/1
f 171/69/1 139/58/1 45/60/1 109/71/1
f 141/70/1 171/69/1 109/71/1 46/72/1
f 28/73/1 91/74/1 172/75/1 142/76/1
f 91/74/1 27/61/1 140/64/1 172/75/1
f 172/75/1 140/64/1 59/66/1 123/77/1
f 142/76/1 172/75/1 123/77/1 60/78/1
f 15/79/1 78/80/1 173/81/1 143/82/1
f 78/80/1 14/67/1 141/70/1 173/81/1
f 173/81/1 141/70/1 46/72/1 110/83/1
f 143/82/1 173/81/1 110/83/1 47/84/1
f 2/85/1 65/86/1 174/87/1 145/88/1
f 65/86/1 1/89/1 144/90/1 174/87/1
f 174/87/1 144/90/1 33/91/1 97/92/1
f 145/88/1 174/87/1 97/92/1 34/93/1
f 29/94/1 92/95/1 175/96/1 146/97/1
f 92/95/1 28/73/1 142/76/1 175/96/1
f 175/96/1 142/76/1 60/78/1 124/98/1
f 146/97/1 175/96/1 124/98/1 61/99/1
f 16/100/1 79/101/1 176/102/1 147/103/1
f 79/101/1 15/79/1 143/82/1 176/102/1
f 176/102/1 143/82/1 47/84/1 111/104/1
f 147/103/1 176/102/1 111/104/1 48/105/1
f 3/106/1 66/107/1 177/108/1 148/109/1
f 66/107/1 2/85/1 145/88/1 177/108/1
f 177/108/1 145/88/1 34/93/1 98/110/1
f 148/109/1 177/108/1 98/110/1 35/111/1
f 30/112/1 93/113/1 178/114/1 149/115/1
f 93/113/1 29/94/1 146/97/1 178/114/1
f 178/114/1 146/97/1 61/99/1 125/116/1
f 149/115/1 178/114/1 125/116/1 62/117/1
f 17/118/1 80/119/1 179/120/1 150/121/1
f 80/119/1 16/100/1 147/103/1 179/120/1
f 179/120/1 147/103/1 48/105/1 112/122/1
f 150/121/1 179/120/1 112/122/1 49/123/1
f 4/124/1 67/125/1 180/126/1 151/127/1
f 67/125/1 3/106/1 148/109/1 180/126/1
f 180/126/1 148/109/1 35/111/1 99/128/1
f 151/127/1 180/126/1 99/128/1 36/129/1
f 31/130/1 94/131/1 181/132/1 152/133/1
f 94/131/1 30/112/1 149/115/1 181/132/1
f 181/132/1 149/115/1 62/117/1 126/134/1
f 152/133/1 181/132/1 126/134/1 63/135/1
f 18/136/1 81/137/1 182/138/1 153/139/1
f 81/137/1 17/118/1 150/121/1 182/138/1
f 182/138/1 150/121/1 49/123/1 113/140/1
f 153/139/1 182/138/1 113/140/1 50/141/1
f 5/142/1 68/143/1 183/144/1 154/145/1
f 68/143/1 4/124/1 151/127/1 183/144/1
f 183/144/1 151/127/1 36/129/1 100/146/1
f 154/145/1 183/144/1 100/146/1 37/147/1
f 32/148/1 95/149/1 184/150/1 155/151/1
f 95/149/1 31/130/1 152/133/1 184/150/1
f 184/150/1 152/133/1 63/135/1 127/152/1
f 155/151/1 184/150/1 127/152/1 64/153/1
f 19/154/1 82/155/1 185/156/1 156/157/1
f 82/155/1 18/136/1 153/139/1 185/156/1
f 185/156/1 153/139/1 50/141/1 114/158/1
f 156/157/1 185/156/1 114/158/1 51/159/1
f 6/160/1 69/161/1 186/162/1 157/163/1
f 69/161/1 5/142/1 154/145/1 186/162/1
f 186/162/1 154/145/1 37/147/1 101/164/1
f 157/163/1 186/162/1 101/164/1 38/165/1
f 1/89/1 96/166/1 187/167/1 144/90/1
f 96/166/1 32/148/1 155/151/1 187/167/1
f 187/167/1 155/151/1 64/153/1 128/168/1
f 144/90/1 187/167/1 128/168/1 33/91/1
f 20/169/1 83/170/1 188/171/1 158/172/1
f 83/170/1 19/154/1 156/157/1 188/171/1
f 188/171/1 156/157/1 51/159/1 115/173/1
f 158/172/1 188/171/1 115/173/1 52/174/1
f 7/175/1 70/176/1 189/177/1 159/178/1
f 70/176/1 6/160/1 157/163/1 189/177/1
f 189/177/1 157/163/1 38/165/1 102/179/1
f 159/178/1 189/177/1 102/179/1 39/180/1
f 21/181/1 84/182/1 190/183/1 160/184/1
f 84/182/1 20/169/1 158/172/1 190/183/1
f 190/183/1 158/172/1 52/174/1 116/185/1
f 160/184/1 190/183/1 116/185/1 53/186/1
f 8/5/1 71/187/1 191/188/1 129/6/1
f 71/187/1 7/175/1 159/178/1 191/188/1
f 191/188/1 159/178/1 39/180/1 103/189/1
f 129/6/1 191/188/1 103/189/1 40/7/1
f 22/14/1 85/190/1 192/191/1 131/15/1
f 85/190/1 21/181/1 160/184/1 192/191/1
f 192/191/1 160/184/1 53/186/1 117/192/1
f 131/15/1 192/191/1 117/192/1 54/16/1
